<?xml version="1.0" encoding="iso-8859-1"?>
<!-- Generator: Adobe Illustrator 19.0.0, SVG Export Plug-In . SVG Version: 6.00 Build 0)  -->
<svg version="1.1" id="Layer_1" xmlns="http://www.w3.org/2000/svg" xmlns:xlink="http://www.w3.org/1999/xlink" x="0px" y="0px"
	 viewBox="0 0 512 512" style="enable-background:new 0 0 512 512;" xml:space="preserve">
<g>
	<rect x="20.091" y="284.765" style="fill:#363640;" width="74.471" height="52.835"/>
	<rect x="358.81" y="271.586" style="fill:#363640;" width="87.33" height="88.969"/>
</g>
<rect x="77.207" y="238.139" style="fill:#464754;" width="297.078" height="190.337"/>
<path style="fill:#595B6B;" d="M340.838,347.16v-75.572H110.65v123.447h182.314C292.964,368.594,314.398,347.16,340.838,347.16z"/>
<circle style="fill:#FF6465;" cx="332.821" cy="387.012" r="14.717"/>
<rect x="173.602" y="303.763" style="fill:#A9ACCC;" width="104.299" height="33.834"/>
<g>
	<polygon style="fill:#464754;" points="40.171,337.601 0,360.556 0,261.815 40.171,284.77 	"/>
	<polygon style="fill:#464754;" points="479.4,228.147 412.863,271.589 412.863,360.556 479.4,403.997 479.4,408.321 495.7,408.321 
		495.7,228.147 	"/>
</g>
<path style="fill:#595B6B;" d="M495.7,207.523c-9.002,0-16.3,7.298-16.3,16.3v184.498c0,9.002,7.298,16.3,16.3,16.3
	c9.002,0,16.3-7.298,16.3-16.3V223.823C512,214.821,504.703,207.523,495.7,207.523z"/>
<circle style="fill:#363640;" cx="271.379" cy="166.406" r="82.882"/>
<path style="fill:#464754;" d="M271.38,215.842c-27.256,0-49.432-22.175-49.432-49.432s22.175-49.432,49.432-49.432
	c27.257,0,49.433,22.175,49.433,49.432S298.638,215.842,271.38,215.842z"/>
<circle style="fill:#363640;" cx="134.647" cy="195.438" r="53.85"/>
<path style="fill:#464754;" d="M134.648,215.842c-11.253,0-20.407-9.154-20.407-20.407c0-11.253,9.154-20.407,20.407-20.407
	c11.253,0,20.407,9.154,20.407,20.407C155.055,206.688,145.9,215.842,134.648,215.842z"/>
<g>
</g>
<g>
</g>
<g>
</g>
<g>
</g>
<g>
</g>
<g>
</g>
<g>
</g>
<g>
</g>
<g>
</g>
<g>
</g>
<g>
</g>
<g>
</g>
<g>
</g>
<g>
</g>
<g>
</g>
</svg>
